<svg width="106" height="65" fill="none" xmlns="http://www.w3.org/2000/svg"><g clip-path="url(#clip0_21_844)"><path d="M12.974 36.809c.49-.49 1.09-1.144 1.688-1.906l.654-.98c.217-.218.435-.436.653-.763.49-.708 1.09-1.034 1.688-.98.545.163.436.763-.327 1.906a32.646 32.646 0 01-2.559 3.213c-1.144 1.307-1.96 2.069-2.45 2.341-1.797.708-2.94.49-3.54-.762-.49-1.09-.49-2.45.11-4.193-.055.054-.491.436-1.199 1.09-.653.653-1.252 1.197-1.797 1.578-1.633 1.307-2.94 1.688-3.975 1.307-2.396-1.143-2.56-3.43-.436-6.861a14.691 14.691 0 012.669-3.213c1.143-1.198 2.232-2.014 3.321-2.45 2.287-.926 4.03-.436 5.228 1.416.381-.436.762-.436 1.198-.11.435.436.435 1.09 0 1.907l-1.416 2.45c-.708 1.307-1.198 2.342-1.47 3.104-.436 1.198-.545 2.341-.436 3.322.327.49 1.09 0 2.396-1.416zm-9.203-.545c.872-.544 1.96-1.416 3.322-2.56 1.198-1.088 2.287-2.068 3.213-2.994.926-1.09 1.361-1.688 1.307-1.906-.49-1.688-2.124-1.416-4.901.98-1.09.872-2.015 1.906-2.886 3.104-.98 1.47-1.47 2.777-1.47 3.866-.11.381.38.218 1.415-.49z" fill="#C61D23"/><path d="M19.999 26.844c.054.98-.164 2.014-.654 2.995.218-.218.654-.708 1.307-1.47l.871-1.09.98-1.306c1.797-2.015 3.485-3.05 5.119-3.213.654.163.817.871.545 2.123l-.11.763-.108.653c0 .545.163.98.435 1.198 0 .055.218.055.654 0l.435-.109c.164 0 .273.055.327.11v.761c-.054.218-.436.382-1.089.545a2.17 2.17 0 01-1.906-.436c-.544-.544-.762-1.306-.653-2.232-.218-.708-1.361.272-3.43 2.995-2.124 2.722-3.867 5.39-5.12 8.004-.163.382-.38.926-.653 1.689l-.327.87-.326.654c-.98.436-1.634.272-1.906-.544a5.959 5.959 0 01-.109-1.198c.054-.382.163-.708.218-1.09.218-.87.653-2.178 1.416-3.974l.762-2.124c.272-.762.544-1.416.762-1.906.273-.762.545-1.96.872-3.54.925-.599 1.524-.326 1.688.872z" fill="#C61D23"/><path d="M13.246 18.295l7.134-1.797c6.316-1.58 11.108-2.886 14.32-3.976a177.358 177.358 0 001.798-4.682l.871-2.56.98-2.559.218-.762.218-.872c.163-.544.327-.87.545-.98 1.306-.544 1.415.98.435 4.683-.272 1.144-.708 2.505-1.307 4.193l-.326.98-.327.763c-.164.544-.273.925-.327 1.089 2.015-.545 4.9-1.416 8.767-2.56 1.361-.435 2.94-.925 4.683-1.47l2.233-.653c.87-.273 1.47-.49 1.905-.654.055-.054.218-.054.436.11.272.162.436.38.436.653 0 .272-.218.599-.654.98-.49.38-1.307.708-2.45 1.089-2.07.544-4.683 1.361-7.896 2.341l-4.084 1.198-4.247 1.307-.327.98-.327.872-.326 1.089c-.273.87-.545 1.688-.872 2.45-.38 1.09-.653 2.124-.98 3.213-1.906 5.826-3.54 11.054-4.792 15.682-4.192 14.54-5.173 21.564-2.995 21.074.708-.164 1.144-.11 1.307.108.436.49.164.872-.871 1.198-4.138 1.144-4.247-5.608-.436-20.31 1.198-4.629 2.832-10.02 4.901-16.119.381-1.089.708-2.178 1.09-3.321.272-.763.598-1.688.98-2.668.653-1.906.98-3.05 1.088-3.322-2.014.49-4.356 1.089-7.133 1.688l-3.322.871-3.267.654c-5.064 1.197-9.529 2.287-13.34 3.212-.382 0-.6-.163-.763-.435a1.261 1.261 0 01.109-.872c1.96-.598 4.302-1.252 6.915-1.905z" fill="#C61D23"/><path d="M46.868 25.709v13.504h-4.302V25.654h-4.628v-4.302h13.558v4.302h-4.628v.055zm22.544 4.955c0 5.064-4.139 9.203-9.203 9.203-5.064 0-9.203-4.139-9.203-9.203 0-5.064 4.139-9.203 9.203-9.203a9.191 9.191 0 019.203 9.203zm-3.812 0a5.357 5.357 0 00-1.58-3.812 5.265 5.265 0 00-3.811-1.579 5.357 5.357 0 00-3.812 1.58 5.265 5.265 0 00-1.579 3.81c0 1.417.545 2.778 1.58 3.813 1.034.98 2.34 1.579 3.811 1.579 1.416 0 2.777-.6 3.812-1.58a5.357 5.357 0 001.579-3.811zm16.064 2.505l3.866 6.099h-4.792l-3.757-5.664h-2.015v5.61h-4.302V21.406h8.549c4.41 0 6.371 3.322 6.371 6.099-.054 2.014-1.089 4.628-3.92 5.663zm-6.753-3.43h4.248c.544 0 1.034-.11 1.415-.273.273-.163.49-.272.654-.49.381-.49.544-1.09.544-1.525 0-.435-.163-1.089-.599-1.524-.435-.49-1.034-.708-1.96-.708h-4.247v4.52h-.055zm30.385-.872v10.346h-3.539v-1.416c-1.525 1.09-3.322 1.688-5.337 1.688-5.064 0-9.202-4.138-9.202-9.202s4.138-9.203 9.202-9.203c2.287 0 4.357.817 5.99 2.178l-2.722 2.723a5.32 5.32 0 00-3.213-1.09c-1.416 0-2.777.545-3.757 1.58a5.265 5.265 0 00-1.58 3.812c0 1.416.6 2.777 1.58 3.811.98.98 2.341 1.58 3.757 1.58s2.777-.6 3.812-1.58c.217-.217.98-1.034 1.252-1.633h-4.138v-3.594h7.895zm-64.029 16.66h-.49V43.73H38.49v1.797H38v-3.92h.49v1.688h2.287v-1.688h.49v3.92zm4.52.055c-.436 0-.762-.163-1.035-.436-.272-.272-.381-.653-.381-1.089 0-.435.109-.762.381-1.034.273-.273.6-.436.98-.436.436 0 .763.163.98.436.218.272.382.653.382 1.089v.109h-2.287c0 .272.109.49.326.708.164.163.436.272.708.272.327 0 .654-.11.871-.381l.218.272c-.326.381-.708.49-1.143.49zm.871-1.634c0-.218-.109-.435-.272-.653-.164-.218-.381-.272-.708-.272a.902.902 0 00-.653.272c-.164.218-.273.435-.273.653h1.906zm3.921 1.58h-.436v-2.832h.436v.436c.272-.327.599-.49.925-.49v.435h-.163c-.109 0-.272.055-.436.163-.163.11-.272.218-.326.327v1.96zm5.118.054c-.435 0-.762-.163-1.034-.436-.273-.272-.381-.653-.381-1.089 0-.435.108-.762.38-1.034.273-.273.6-.436.98-.436.436 0 .763.163.981.436.218.272.381.653.381 1.089v.109h-2.287c0 .272.109.49.327.708.163.163.436.272.708.272.326 0 .653-.11.871-.381l.218.272c-.327.381-.708.49-1.144.49zm.872-1.634c0-.218-.11-.435-.273-.653-.163-.218-.38-.272-.708-.272a.901.901 0 00-.653.272c-.163.218-.272.435-.272.653h1.906zm9.529 1.579h-.436v-.326c-.218.272-.544.38-.925.38-.273 0-.49-.108-.708-.271-.218-.164-.273-.382-.273-.708 0-.272.11-.545.273-.708.217-.163.435-.218.708-.218.38 0 .707.109.925.381v-.49a.495.495 0 00-.218-.435c-.109-.11-.326-.164-.49-.164-.326 0-.599.11-.87.381l-.219-.326c.327-.327.654-.49 1.144-.49.326 0 .599.054.817.217.217.164.326.382.326.708v2.07h-.054zm-1.198-.272c.327 0 .599-.109.762-.327v-.544c-.163-.218-.435-.327-.762-.327-.218 0-.381.055-.49.164-.11.109-.218.272-.218.435 0 .164.054.327.218.436.109.109.272.163.49.163zm4.9.273h-.435v-2.832h.436v.436c.272-.327.599-.49.925-.49v.435h-.163c-.109 0-.272.055-.436.163-.163.11-.272.218-.326.327v1.96zm4.52.054c-.217 0-.38-.055-.49-.163-.109-.11-.163-.273-.163-.49v-1.852h-.49v-.381h.49v-.762h.436v.762h.599v.381h-.6v1.743c0 .108 0 .217.055.272.054.054.109.109.218.109a.416.416 0 00.272-.11l.109.328c0 .108-.218.163-.436.163zm7.678-.055h-.435v-3.92h.435v3.92zm3.431-3.212a.413.413 0 01-.218-.11c-.055-.054-.109-.108-.109-.217s.054-.163.109-.218c.054-.054.109-.109.218-.109s.163.055.218.11c.054.054.108.108.108.217s-.054.163-.108.218a.412.412 0 01-.218.109zm.218 3.212h-.436v-2.831h.436v2.831zm4.465 0h-.49l-1.198-2.831h.49l.925 2.341.926-2.341h.49l-1.143 2.831zm5.228.055c-.436 0-.763-.163-1.035-.436-.273-.272-.382-.653-.382-1.089 0-.435.11-.762.382-1.034.272-.273.599-.436.98-.436.435 0 .762.163.98.436.218.272.381.653.381 1.089v.109H94.36c0 .272.109.49.327.708.163.163.435.272.708.272.326 0 .653-.11.87-.381l.219.272c-.273.381-.654.49-1.144.49zm.925-1.634c0-.218-.109-.435-.272-.653-.164-.218-.381-.272-.708-.272a.902.902 0 00-.654.272c-.163.218-.272.435-.272.653h1.906zm4.356 1.634c-.49 0-.871-.163-1.143-.436l.218-.326c.108.108.217.217.381.272.163.054.326.109.544.109.218 0 .381-.055.49-.11.109-.108.164-.217.164-.326a.3.3 0 00-.164-.272 3.77 3.77 0 00-.435-.163c-.164-.055-.327-.055-.49-.11-.164-.054-.327-.108-.436-.272-.109-.109-.163-.272-.163-.49 0-.218.108-.435.272-.599.163-.163.435-.218.762-.218.436 0 .763.164 1.035.436l-.218.327c-.218-.218-.49-.381-.871-.381a.85.85 0 00-.436.108c-.109.11-.163.164-.163.327a.3.3 0 00.163.273c.109.054.272.108.436.163.163.054.326.054.49.109.163.054.327.163.435.272.109.109.164.272.164.49 0 .272-.109.436-.272.6-.109.163-.382.217-.763.217zm4.629-.109a.417.417 0 01-.218.109c-.109 0-.163-.055-.218-.109a.417.417 0 01-.109-.218c0-.109.055-.163.109-.218a.413.413 0 01.218-.108c.054 0 .163.054.218.108a.416.416 0 01.109.218c0 .11-.055.163-.109.218zm-.055-1.035h-.381l-.109-2.831h.545l-.055 2.831z" fill="#000"/></g><defs><clipPath id="clip0_21_844"><path fill="#fff" d="M0 0h105.296v64.922H0z"/></clipPath></defs></svg>