<svg width="57" height="35" fill="none" xmlns="http://www.w3.org/2000/svg"><g clip-path="url(#clip0_21_892)"><path d="M7.023 19.844c.266-.264.59-.617.914-1.027l.354-.529c.118-.117.236-.235.354-.41.265-.383.589-.559.913-.53.295.089.236.412-.177 1.028a17.6 17.6 0 01-1.385 1.732c-.619.705-1.061 1.116-1.326 1.262-.973.382-1.592.265-1.916-.41-.266-.588-.266-1.322.058-2.261-.029.03-.265.235-.648.587-.354.352-.678.646-.973.851-.884.705-1.592.91-2.152.705-1.297-.616-1.385-1.85-.235-3.699a7.928 7.928 0 011.444-1.732c.619-.646 1.209-1.086 1.798-1.32 1.238-.5 2.181-.236 2.83.762.206-.235.413-.235.648-.058.236.235.236.587 0 1.027l-.766 1.321c-.383.705-.649 1.262-.796 1.674a3.963 3.963 0 00-.236 1.79c.177.264.59 0 1.297-.763zm-4.981-.294c.471-.293 1.06-.763 1.798-1.38.648-.587 1.238-1.115 1.739-1.614.501-.587.737-.91.707-1.028-.265-.91-1.15-.763-2.653.529-.59.47-1.09 1.027-1.562 1.673-.53.793-.796 1.497-.796 2.085-.059.205.207.117.767-.265z" fill="#C61D23"/><path d="M10.826 14.472a3.214 3.214 0 01-.354 1.614c.118-.117.354-.381.708-.792l.471-.587.53-.705c.974-1.086 1.887-1.644 2.772-1.732.353.088.442.47.294 1.145l-.059.41-.059.353c0 .294.089.529.236.646 0 .03.118.03.354 0l.236-.059c.088 0 .147.03.177.059v.411c-.03.117-.236.206-.59.294-.383.088-.737 0-1.031-.235-.295-.294-.413-.705-.354-1.204-.118-.381-.737.147-1.857 1.615-1.15 1.467-2.093 2.906-2.771 4.315-.089.206-.207.5-.354.91l-.177.47-.177.352c-.53.235-.884.147-1.031-.293a3.202 3.202 0 01-.06-.646c.03-.206.09-.382.119-.587.118-.47.353-1.175.766-2.143l.413-1.145c.147-.411.294-.764.412-1.028.148-.41.295-1.057.472-1.908.501-.323.825-.176.914.47z" fill="#C61D23"/><path d="M7.17 9.863l3.862-.969c3.42-.851 6.014-1.556 7.753-2.143.235-.587.56-1.41.972-2.525l.472-1.38.53-1.38.119-.41.117-.47c.089-.293.177-.47.295-.528.708-.294.767.528.236 2.524-.147.617-.383 1.35-.707 2.26l-.177.53-.177.41c-.089.294-.148.5-.177.587 1.09-.293 2.653-.763 4.746-1.38.737-.234 1.592-.498 2.535-.792l1.208-.352a18.67 18.67 0 001.032-.353c.03-.029.118-.029.236.06.147.087.236.205.236.351 0 .147-.118.323-.354.529-.265.205-.707.382-1.326.587-1.12.294-2.535.734-4.275 1.262l-2.21.646-2.3.705-.176.528-.177.47-.177.587c-.148.47-.295.91-.472 1.321-.206.587-.354 1.145-.53 1.732-1.032 3.141-1.916 5.96-2.594 8.455-2.27 7.838-2.8 11.625-1.622 11.36.383-.088.62-.058.708.06.236.263.088.469-.472.645-2.24.617-2.3-3.024-.236-10.95.649-2.495 1.533-5.401 2.653-8.69.207-.586.383-1.174.59-1.79.147-.411.324-.91.53-1.438.354-1.028.531-1.644.59-1.791-1.09.264-2.358.587-3.862.91l-1.798.47-1.768.352c-2.742.646-5.159 1.233-7.222 1.732a.439.439 0 01-.413-.235.677.677 0 01.06-.47A76.512 76.512 0 017.17 9.863z" fill="#C61D23"/><path d="M25.371 13.86v7.28h-2.329v-7.31h-2.505v-2.319h7.34v2.32H25.37v.029zm12.204 2.671c0 2.73-2.24 4.961-4.982 4.961-2.741 0-4.982-2.23-4.982-4.96s2.24-4.962 4.982-4.962a4.965 4.965 0 014.982 4.961zm-2.064 0c0-.763-.295-1.497-.855-2.055a2.856 2.856 0 00-2.063-.851c-.766 0-1.503.293-2.063.851a2.832 2.832 0 00-.855 2.055c0 .764.294 1.497.855 2.055.56.529 1.267.852 2.063.852.766 0 1.503-.323 2.063-.852.56-.558.855-1.291.855-2.055zm8.696 1.351l2.093 3.287h-2.594l-2.034-3.053h-1.09v3.024h-2.33v-9.6h4.628c2.388 0 3.45 1.791 3.45 3.289-.03 1.086-.59 2.495-2.123 3.053zm-3.655-1.85h2.299c.295 0 .56-.059.766-.147.148-.088.266-.146.354-.264.207-.264.295-.587.295-.822s-.088-.587-.324-.822c-.236-.264-.56-.381-1.062-.381h-2.299v2.436h-.03zM57 15.563v5.577h-1.916v-.763a4.898 4.898 0 01-2.889.91c-2.741 0-4.981-2.231-4.981-4.961 0-2.73 2.24-4.962 4.981-4.962a5.04 5.04 0 013.243 1.175l-1.474 1.468a2.888 2.888 0 00-1.74-.588 2.79 2.79 0 00-2.033.852 2.833 2.833 0 00-.855 2.055c0 .763.324 1.497.855 2.055a2.91 2.91 0 002.034.851c.766 0 1.503-.323 2.063-.851.118-.118.53-.558.678-.881h-2.24v-1.938H57zm-34.66 8.981h-.266v-.968h-1.238v.968h-.265v-2.113h.265v.91h1.238v-.91h.265v2.113zm2.446.03a.756.756 0 01-.56-.235c-.148-.147-.207-.352-.207-.587s.06-.411.207-.558a.74.74 0 01.53-.235c.236 0 .413.088.53.235a.943.943 0 01.207.587v.059h-1.238c0 .146.06.264.177.381a.562.562 0 00.383.147.588.588 0 00.472-.205l.118.146c-.177.206-.383.265-.62.265zm.471-.881c0-.117-.059-.235-.147-.352-.088-.118-.206-.147-.383-.147a.489.489 0 00-.354.147c-.088.117-.147.235-.147.352h1.031zm2.123.851h-.236v-1.526h.236v.235c.147-.177.324-.265.5-.265v.235h-.088a.472.472 0 00-.235.088.5.5 0 00-.177.177v1.056zm2.77.03a.756.756 0 01-.56-.235c-.147-.147-.206-.352-.206-.587s.06-.411.206-.558a.74.74 0 01.531-.235c.236 0 .413.088.53.235a.943.943 0 01.207.587v.059H29.62c0 .146.059.264.177.381a.561.561 0 00.383.147.588.588 0 00.472-.205l.118.146c-.177.206-.384.265-.62.265zm.472-.881c0-.117-.059-.235-.147-.352-.089-.118-.207-.147-.383-.147a.489.489 0 00-.354.147c-.088.117-.148.235-.148.352h1.032zm5.158.851h-.235v-.176c-.118.147-.295.206-.501.206a.622.622 0 01-.383-.147c-.118-.088-.148-.206-.148-.382 0-.147.06-.293.148-.381a.594.594 0 01.383-.118c.206 0 .383.059.5.206v-.264a.267.267 0 00-.117-.235c-.059-.06-.177-.088-.265-.088a.629.629 0 00-.472.205l-.118-.176a.805.805 0 01.62-.264c.176 0 .323.03.441.117.118.088.177.206.177.382v1.115h-.03zm-.648-.146c.177 0 .325-.06.413-.177v-.293c-.089-.118-.236-.176-.413-.176-.118 0-.206.03-.265.088-.059.058-.118.146-.118.235 0 .088.03.176.118.235.059.058.147.088.265.088zm2.653.146h-.236v-1.526h.236v.235c.148-.177.324-.265.501-.265v.235h-.088a.472.472 0 00-.236.088.5.5 0 00-.177.177v1.056zm2.447.03c-.118 0-.207-.03-.266-.088-.059-.06-.088-.147-.088-.265v-.998h-.265v-.205h.265v-.411h.236v.41h.324v.206h-.324v.94c0 .058 0 .117.03.146.029.03.058.06.117.06.06 0 .118-.03.148-.06l.059.177c0 .058-.118.088-.236.088zm4.156-.03h-.236v-2.113h.236v2.113zm1.857-1.732a.224.224 0 01-.118-.058c-.03-.03-.059-.06-.059-.118 0-.059.03-.088.06-.117.029-.03.058-.059.117-.059.06 0 .089.03.118.059.03.03.059.058.059.117 0 .059-.03.088-.059.118a.224.224 0 01-.118.058zm.118 1.732h-.236v-1.526h.236v1.526zm2.417 0h-.265l-.649-1.526h.266l.5 1.262.502-1.262h.265l-.619 1.526zm2.83.03a.756.756 0 01-.56-.235c-.147-.147-.206-.352-.206-.587s.059-.411.206-.558a.74.74 0 01.53-.235c.236 0 .413.088.531.235a.943.943 0 01.206.587v.059H51.08c0 .146.06.264.177.381a.561.561 0 00.383.147.587.587 0 00.472-.205l.118.146c-.148.206-.354.265-.62.265zm.501-.881c0-.117-.059-.235-.147-.352-.089-.118-.207-.147-.384-.147a.489.489 0 00-.353.147c-.089.117-.148.235-.148.352h1.032zm2.359.881a.846.846 0 01-.62-.235l.118-.176c.06.058.118.117.206.146.089.03.177.06.295.06s.207-.03.265-.06c.06-.058.089-.117.089-.176a.161.161 0 00-.089-.146 2.028 2.028 0 00-.235-.088c-.089-.03-.177-.03-.266-.06-.088-.029-.176-.058-.235-.146-.06-.059-.089-.147-.089-.264a.47.47 0 01.148-.323c.088-.088.235-.118.412-.118.236 0 .413.088.56.235l-.118.176a.643.643 0 00-.471-.205c-.118 0-.177.03-.236.059-.059.058-.089.088-.089.176 0 .059.03.117.089.147.059.029.147.058.236.088.088.029.177.029.265.058.089.03.177.088.236.147s.088.147.088.264c0 .147-.059.235-.147.323-.059.088-.206.118-.413.118zm2.505-.059a.225.225 0 01-.118.059c-.06 0-.089-.03-.118-.059a.222.222 0 01-.059-.117c0-.06.03-.088.059-.118a.224.224 0 01.118-.059.214.214 0 01.177.177c0 .058-.03.088-.06.117zm-.03-.558h-.206l-.059-1.526h.295l-.03 1.526z" fill="#000"/></g><defs><clipPath id="clip0_21_892"><path fill="#fff" d="M0 0h57v35H0z"/></clipPath></defs></svg>