<svg width="18" height="18" fill="none" xmlns="http://www.w3.org/2000/svg"><rect width="18" height="18" rx="2" fill="#fff"/><rect width="18" height="18" rx="2" fill="#C61D23"/><path fill-rule="evenodd" clip-rule="evenodd" d="M5.068 12.176a1.158 1.158 0 01-.47-.271 1.12 1.12 0 01-.288-.452c-.33-.884-.429-4.574.208-5.302a1.23 1.23 0 01.831-.406c1.707-.18 6.98-.156 7.585.06a1.16 1.16 0 01.746.698c.362.914.374 4.233-.048 5.111-.112.229-.3.414-.532.526-.637.31-7.188.304-8.032.036zm2.71-1.732l3.058-1.553-3.058-1.564v3.117z" fill="#fff"/></svg>