<svg width="106" height="65" viewBox="0 0 106 65" fill="none" xmlns="http://www.w3.org/2000/svg">
<g clip-path="url(#clip0_21_844)">
<path d="M12.9741 36.8087C13.4642 36.3186 14.0631 35.6652 14.6621 34.9028L15.3156 33.9227C15.5334 33.7048 15.7512 33.487 15.969 33.1603C16.4591 32.4524 17.0581 32.1257 17.6571 32.1801C18.2016 32.3435 18.0927 32.9425 17.3304 34.086C16.6769 35.0117 15.8601 36.1008 14.771 37.2987C13.6275 38.6056 12.8107 39.368 12.3207 39.6402C10.5237 40.3481 9.38018 40.1303 8.78119 38.8779C8.29111 37.7888 8.29112 36.4275 8.89011 34.685C8.83565 34.7395 8.40002 35.1206 7.69213 35.7741C7.03869 36.4275 6.43971 36.972 5.89518 37.3532C4.26159 38.6601 2.95472 39.0412 1.9201 38.6601C-0.475835 37.5166 -0.639188 35.2295 1.48449 31.799C2.19238 30.6555 3.06361 29.5664 4.15267 28.5862C5.29619 27.3883 6.38527 26.5715 7.47434 26.1358C9.76137 25.2101 11.5039 25.7002 12.7018 27.5516C13.083 27.116 13.4642 27.116 13.8998 27.4427C14.3354 27.8783 14.3354 28.5318 13.8998 29.3486L12.484 31.799C11.7761 33.1058 11.2861 34.1405 11.0138 34.9028C10.5782 36.1008 10.4692 37.2443 10.5781 38.2245C10.9049 38.7145 11.6672 38.2245 12.9741 36.8087ZM3.77149 36.2641C4.64274 35.7196 5.73183 34.8483 7.09316 33.7048C8.29113 32.6158 9.38017 31.6356 10.3059 30.7099C11.2316 29.6208 11.6672 29.0219 11.6128 28.804C11.1227 27.116 9.48909 27.3883 6.71198 29.7842C5.62291 30.6555 4.69722 31.6901 3.82597 32.888C2.84581 34.3583 2.35572 35.6651 2.35572 36.7542C2.24682 37.1354 2.73688 36.972 3.77149 36.2641Z" fill="#C61D23"/>
<path d="M19.9986 26.8437C20.053 27.8239 19.8352 28.8585 19.3451 29.8387C19.563 29.6209 19.9986 29.1308 20.652 28.3684L21.5233 27.2794L22.5034 25.9725C24.3004 23.9577 25.9884 22.9231 27.622 22.7598C28.2755 22.9231 28.4388 23.631 28.1666 24.8834L28.0577 25.6458L27.9487 26.2992C27.9487 26.8437 28.1121 27.2794 28.3844 27.4972C28.3844 27.5516 28.6022 27.5516 29.0378 27.4972L29.4734 27.3883C29.6368 27.3883 29.7457 27.4427 29.8002 27.4972V28.2595C29.7457 28.4773 29.3645 28.6407 28.7111 28.804C28.0032 28.9674 27.3498 28.8041 26.8052 28.3684C26.2607 27.8239 26.0429 27.0616 26.1518 26.1358C25.934 25.428 24.7905 26.4081 22.7212 29.1308C20.5976 31.8534 18.8551 34.5216 17.6026 37.1354C17.4393 37.5166 17.2215 38.0611 16.9492 38.8235L16.6225 39.6947L16.2957 40.3481C15.3156 40.7838 14.6622 40.6204 14.3899 39.8036C14.3354 39.5313 14.281 39.1502 14.281 38.6056C14.3355 38.2245 14.4443 37.8977 14.4988 37.5166C14.7166 36.6453 15.1523 35.3384 15.9146 33.5415L16.6769 31.4178C16.9492 30.6555 17.2215 30.002 17.4393 29.512C17.7115 28.7496 17.9838 27.5516 18.3105 25.9725C19.2362 25.3735 19.8352 25.6458 19.9986 26.8437Z" fill="#C61D23"/>
<path d="M13.2464 18.2946L20.3797 16.4976C26.6963 14.9185 31.4882 13.6116 34.7009 12.5225C35.1366 11.4335 35.7355 9.90878 36.4979 7.83956L37.3691 5.28027L38.3493 2.72097L38.5671 1.95862L38.7849 1.08737C38.9483 0.542838 39.1116 0.216125 39.3295 0.107219C40.6363 -0.437313 40.7452 1.08738 39.7651 4.7902C39.4928 5.93371 39.0572 7.29503 38.4582 8.98308L38.1315 9.96325L37.8047 10.7256C37.6414 11.2701 37.5325 11.6513 37.478 11.8147C39.4928 11.2701 42.3788 10.3989 46.245 9.25535C47.6063 8.81972 49.1855 8.32965 50.928 7.78512L53.1606 7.13168C54.0318 6.85941 54.6308 6.64159 55.0664 6.47823C55.1209 6.42378 55.2842 6.42379 55.502 6.58714C55.7743 6.7505 55.9377 6.96832 55.9377 7.24059C55.9377 7.51286 55.7199 7.83957 55.2842 8.22074C54.7942 8.60191 53.9774 8.92863 52.8338 9.3098C50.7646 9.85434 48.1509 10.6711 44.9381 11.6513L40.8541 12.8493L36.6068 14.1561C36.5523 14.3195 36.4434 14.6462 36.2801 15.1363L35.9534 16.0075L35.6266 17.0966C35.3544 17.9679 35.0821 18.7847 34.7554 19.547C34.3742 20.6361 34.1019 21.6707 33.7752 22.7597C31.8694 28.5862 30.2358 33.8137 28.9834 38.4423C24.7905 52.9813 23.8103 60.0057 25.9884 59.5157C26.6963 59.3523 27.1319 59.4067 27.2953 59.6245C27.7309 60.1146 27.4587 60.4958 26.424 60.8225C22.2856 61.966 22.1767 55.2138 25.9884 40.5115C27.1864 35.883 28.82 30.4921 30.8892 24.3933C31.2704 23.3043 31.5971 22.2152 31.9783 21.0717C32.2505 20.3094 32.5773 19.3836 32.9584 18.4035C33.6119 16.4976 33.9386 15.3541 34.0475 15.0818C32.0327 15.5719 29.6912 16.1709 26.9141 16.7699L23.5925 17.6411L20.3253 18.2946C15.2611 19.4925 10.796 20.5816 6.98425 21.5073C6.60308 21.5073 6.38526 21.344 6.2219 21.0717C6.16744 20.7994 6.16745 20.5272 6.33081 20.2004C8.29112 19.6015 10.6326 18.948 13.2464 18.2946Z" fill="#C61D23"/>
<path d="M46.868 25.7087V39.2131H42.5662V25.6543H37.9377V21.3525H51.4965V25.6543H46.868V25.7087Z" fill="black"/>
<path d="M69.4116 30.6639C69.4116 35.7281 65.2732 39.8665 60.209 39.8665C55.1449 39.8665 51.0064 35.7281 51.0064 30.6639C51.0064 25.5998 55.1449 21.4614 60.209 21.4614C65.3276 21.4614 69.4116 25.5998 69.4116 30.6639ZM65.5999 30.6639C65.5999 29.2482 65.0554 27.8868 64.0208 26.8522C62.9862 25.8176 61.6793 25.2731 60.209 25.2731C58.7933 25.2731 57.4319 25.8176 56.3973 26.8522C55.3627 27.8868 54.8182 29.1937 54.8182 30.6639C54.8182 32.0797 55.3627 33.4411 56.3973 34.4757C57.4319 35.4558 58.7388 36.0548 60.209 36.0548C61.6248 36.0548 62.9862 35.4558 64.0208 34.4757C65.0554 33.4411 65.5999 32.0797 65.5999 30.6639Z" fill="black"/>
<path d="M81.6636 33.1688L85.5298 39.2676H80.7379L76.9806 33.6044C76.2183 33.6044 75.5648 33.6044 74.9658 33.6044V39.2131H70.6641V21.4069H74.9658C75.5104 21.4069 76.6539 21.4069 79.2132 21.4069C83.6239 21.4069 85.5842 24.7285 85.5842 27.5057C85.5298 29.5204 84.4951 32.1342 81.6636 33.1688ZM74.9114 29.7382H79.1587C79.7033 29.7382 80.1933 29.6293 80.5745 29.466C80.8468 29.3026 81.0646 29.1937 81.228 28.9759C81.6091 28.4858 81.7725 27.8868 81.7725 27.4512C81.7725 27.0156 81.6091 26.3621 81.1735 25.9265C80.7379 25.4364 80.1389 25.2186 79.2132 25.2186H74.9658V29.7382H74.9114Z" fill="black"/>
<path d="M105.296 28.867V39.2131H101.757V37.7973C100.232 38.8864 98.4352 39.4854 96.4204 39.4854C91.3563 39.4854 87.2178 35.3469 87.2178 30.2828C87.2178 25.2186 91.3563 21.0802 96.4204 21.0802C98.7074 21.0802 100.777 21.897 102.41 23.2583L99.6876 25.981C98.7619 25.2731 97.6184 24.8919 96.4748 24.8919C95.0591 24.8919 93.6978 25.4364 92.7176 26.4711C91.683 27.5057 91.1384 28.8125 91.1384 30.2828C91.1384 31.6986 91.7374 33.0599 92.7176 34.0945C93.6978 35.0747 95.0591 35.6736 96.4748 35.6736C97.8906 35.6736 99.252 35.0747 100.287 34.0945C100.504 33.8767 101.267 33.0599 101.539 32.4609H97.4006V28.867H101.866H105.296Z" fill="black"/>
<path d="M41.2672 45.5274H40.7771V43.7305H38.4901V45.5274H38V41.6068H38.4901V43.2949H40.7771V41.6068H41.2672V45.5274Z" fill="black"/>
<path d="M45.7868 45.5819C45.3512 45.5819 45.0245 45.4185 44.7522 45.1463C44.4799 44.874 44.371 44.4928 44.371 44.0572C44.371 43.6216 44.4799 43.2949 44.7522 43.0226C45.0245 42.7503 45.3512 42.587 45.7324 42.587C46.168 42.587 46.4947 42.7503 46.7125 43.0226C46.9303 43.2949 47.0937 43.676 47.0937 44.1117V44.2206H44.8067C44.8067 44.4928 44.9156 44.7107 45.1334 44.9285C45.2968 45.0918 45.569 45.2007 45.8413 45.2007C46.168 45.2007 46.4947 45.0918 46.7125 44.8196L46.9303 45.0918C46.6036 45.473 46.2224 45.5819 45.7868 45.5819ZM46.6581 43.9483C46.6581 43.7305 46.5492 43.5127 46.3858 43.2949C46.2224 43.0771 46.0046 43.0226 45.6779 43.0226C45.4057 43.0226 45.1878 43.1315 45.0245 43.2949C44.8611 43.5127 44.7522 43.7305 44.7522 43.9483H46.6581Z" fill="black"/>
<path d="M50.5787 45.5275H50.143V42.6959H50.5787V43.1315C50.851 42.8048 51.1776 42.6414 51.5044 42.6414V43.0771C51.4499 43.0771 51.3955 43.0771 51.341 43.0771C51.2321 43.0771 51.0688 43.1315 50.9054 43.2404C50.742 43.3493 50.6331 43.4582 50.5787 43.5671V45.5275Z" fill="black"/>
<path d="M55.6973 45.5819C55.2617 45.5819 54.935 45.4185 54.6627 45.1463C54.3904 44.874 54.2815 44.4928 54.2815 44.0572C54.2815 43.6216 54.3904 43.2949 54.6627 43.0226C54.935 42.7503 55.2617 42.587 55.6429 42.587C56.0785 42.587 56.4052 42.7503 56.623 43.0226C56.8408 43.2949 57.0042 43.676 57.0042 44.1117V44.2206H54.7171C54.7171 44.4928 54.826 44.7107 55.0438 44.9285C55.2072 45.0918 55.4795 45.2007 55.7518 45.2007C56.0785 45.2007 56.4052 45.0918 56.623 44.8196L56.8408 45.0918C56.5141 45.473 56.1329 45.5819 55.6973 45.5819ZM56.5686 43.9483C56.5686 43.7305 56.4597 43.5127 56.2963 43.2949C56.1329 43.0771 55.9151 43.0226 55.5884 43.0226C55.3161 43.0226 55.0983 43.1315 54.935 43.2949C54.7716 43.5127 54.6627 43.7305 54.6627 43.9483H56.5686Z" fill="black"/>
<path d="M66.0979 45.5274H65.6622V45.2007C65.4444 45.473 65.1177 45.5819 64.7365 45.5819C64.4643 45.5819 64.2464 45.473 64.0286 45.3096C63.8108 45.1463 63.7563 44.9285 63.7563 44.6017C63.7563 44.3295 63.8653 44.0572 64.0286 43.8939C64.2464 43.7305 64.4643 43.676 64.7365 43.676C65.1177 43.676 65.4444 43.7849 65.6622 44.0572V43.5671C65.6622 43.4038 65.6078 43.2404 65.4444 43.1315C65.3355 43.0226 65.1177 42.9681 64.9543 42.9681C64.6276 42.9681 64.3554 43.0771 64.0831 43.3493L63.8653 43.0226C64.192 42.6959 64.5187 42.5325 65.0088 42.5325C65.3355 42.5325 65.6078 42.587 65.8256 42.7503C66.0434 42.9137 66.1523 43.1315 66.1523 43.4582V45.5274H66.0979ZM64.8999 45.2552C65.2266 45.2552 65.4988 45.1463 65.6622 44.9285V44.3839C65.4988 44.1661 65.2266 44.0572 64.8999 44.0572C64.6821 44.0572 64.5187 44.1117 64.4098 44.2206C64.3009 44.3295 64.192 44.4928 64.192 44.6562C64.192 44.8196 64.2464 44.9829 64.4098 45.0918C64.5187 45.2007 64.6821 45.2552 64.8999 45.2552Z" fill="black"/>
<path d="M69.8007 45.5275H69.3651V42.6959H69.8007V43.1315C70.0729 42.8048 70.3997 42.6414 70.7264 42.6414V43.0771C70.6719 43.0771 70.6174 43.0771 70.563 43.0771C70.4541 43.0771 70.2907 43.1315 70.1274 43.2404C69.964 43.3493 69.8551 43.4582 69.8007 43.5671V45.5275Z" fill="black"/>
<path d="M74.3203 45.5819C74.1025 45.5819 73.9391 45.5274 73.8302 45.4185C73.7213 45.3096 73.6668 45.1463 73.6668 44.9285V43.0771H73.1768V42.6959H73.6668V41.9335H74.1025V42.6959H74.7015V43.0771H74.1025V44.8196C74.1025 44.9285 74.1025 45.0374 74.1569 45.0918C74.2114 45.1463 74.2658 45.2007 74.3747 45.2007C74.4836 45.2007 74.5925 45.1463 74.647 45.0918L74.7559 45.4185C74.7559 45.5274 74.5381 45.5819 74.3203 45.5819Z" fill="black"/>
<path d="M81.9982 45.5274H81.5626V41.6068H81.9982V45.5274Z" fill="black"/>
<path d="M85.4287 42.3147C85.3743 42.3147 85.2654 42.2603 85.2109 42.2058C85.1564 42.1513 85.102 42.0969 85.102 41.988C85.102 41.8791 85.1564 41.8246 85.2109 41.7702C85.2654 41.7157 85.3198 41.6613 85.4287 41.6613C85.5376 41.6613 85.5921 41.7157 85.6465 41.7702C85.701 41.8246 85.7554 41.8791 85.7554 41.988C85.7554 42.0969 85.701 42.1513 85.6465 42.2058C85.5921 42.2603 85.4832 42.3147 85.4287 42.3147ZM85.6465 45.5274H85.2109V42.6959H85.6465V45.5274Z" fill="black"/>
<path d="M90.1117 45.5274H89.6216L88.4237 42.6959H88.9137L89.8394 45.0374L90.7652 42.6959H91.2552L90.1117 45.5274Z" fill="black"/>
<path d="M95.3392 45.5819C94.9036 45.5819 94.5769 45.4185 94.3046 45.1463C94.0323 44.874 93.9234 44.4928 93.9234 44.0572C93.9234 43.6216 94.0323 43.2949 94.3046 43.0226C94.5769 42.7503 94.9036 42.587 95.2848 42.587C95.7204 42.587 96.0471 42.7503 96.2649 43.0226C96.4827 43.2949 96.6461 43.676 96.6461 44.1117V44.2206H94.3591C94.3591 44.4928 94.468 44.7107 94.6858 44.9285C94.8491 45.0918 95.1214 45.2007 95.3937 45.2007C95.7204 45.2007 96.0471 45.0918 96.2649 44.8196L96.4827 45.0918C96.2105 45.473 95.8293 45.5819 95.3392 45.5819ZM96.2649 43.9483C96.2649 43.7305 96.156 43.5127 95.9926 43.2949C95.8293 43.0771 95.6115 43.0226 95.2848 43.0226C95.0125 43.0226 94.7947 43.1315 94.6313 43.2949C94.468 43.5127 94.3591 43.7305 94.3591 43.9483H96.2649Z" fill="black"/>
<path d="M100.621 45.5819C100.131 45.5819 99.7499 45.4185 99.4777 45.1463L99.6955 44.8196C99.8044 44.9285 99.9133 45.0374 100.077 45.0918C100.24 45.1463 100.403 45.2007 100.621 45.2007C100.839 45.2007 101.002 45.1463 101.111 45.0918C101.22 44.9829 101.275 44.874 101.275 44.7651C101.275 44.6562 101.22 44.5473 101.111 44.4928C101.002 44.4384 100.839 44.3839 100.676 44.3295C100.512 44.275 100.349 44.275 100.186 44.2206C100.022 44.1661 99.8588 44.1117 99.7499 43.9483C99.641 43.8394 99.5866 43.6761 99.5866 43.4582C99.5866 43.2404 99.6955 43.0226 99.8588 42.8593C100.022 42.6959 100.294 42.6414 100.621 42.6414C101.057 42.6414 101.384 42.8048 101.656 43.0771L101.438 43.4038C101.22 43.186 100.948 43.0226 100.567 43.0226C100.349 43.0226 100.24 43.0771 100.131 43.1315C100.022 43.2404 99.9677 43.2949 99.9677 43.4582C99.9677 43.5671 100.022 43.6761 100.131 43.7305C100.24 43.785 100.403 43.8394 100.567 43.8939C100.73 43.9483 100.893 43.9483 101.057 44.0028C101.22 44.0572 101.384 44.1661 101.492 44.275C101.601 44.3839 101.656 44.5473 101.656 44.7651C101.656 45.0374 101.547 45.2007 101.384 45.3641C101.275 45.5275 101.002 45.5819 100.621 45.5819Z" fill="black"/>
<path d="M105.25 45.473C105.195 45.5274 105.086 45.5819 105.032 45.5819C104.923 45.5819 104.869 45.5274 104.814 45.473C104.76 45.4185 104.705 45.3096 104.705 45.2552C104.705 45.1463 104.76 45.0918 104.814 45.0374C104.869 44.9829 104.977 44.9285 105.032 44.9285C105.086 44.9285 105.195 44.9829 105.25 45.0374C105.304 45.0918 105.359 45.2007 105.359 45.2552C105.359 45.3641 105.304 45.4185 105.25 45.473ZM105.195 44.4384H104.814L104.705 41.6068H105.25L105.195 44.4384Z" fill="black"/>
</g>
<defs>
<clipPath id="clip0_21_844">
<rect width="105.296" height="64.9218" fill="white"/>
</clipPath>
</defs>
</svg>
