<svg width="57" height="35" viewBox="0 0 57 35" fill="none" xmlns="http://www.w3.org/2000/svg">
<g clip-path="url(#clip0_21_892)">
<path d="M7.02326 19.8439C7.28856 19.5797 7.6128 19.2274 7.93705 18.8165L8.29077 18.288C8.40868 18.1706 8.5266 18.0532 8.6445 17.8771C8.9098 17.4954 9.23404 17.3193 9.55829 17.3486C9.85306 17.4367 9.79411 17.7596 9.38143 18.3761C9.02771 18.8752 8.58555 19.4623 7.996 20.1081C7.37698 20.8127 6.93483 21.2237 6.66953 21.3705C5.69679 21.7521 5.07777 21.6347 4.75352 20.9595C4.48823 20.3723 4.48823 19.6384 4.81248 18.699C4.783 18.7284 4.54718 18.9339 4.16398 19.2862C3.81025 19.6384 3.48601 19.932 3.19124 20.1375C2.30692 20.842 1.59947 21.0475 1.03941 20.842C-0.257584 20.2256 -0.346012 18.9926 0.803596 17.1431C1.1868 16.5267 1.65842 15.9395 2.24796 15.4111C2.86698 14.7653 3.45654 14.3249 4.04608 14.0901C5.28412 13.591 6.22738 13.8552 6.87588 14.8534C7.08222 14.6185 7.28856 14.6185 7.52438 14.7946C7.76019 15.0295 7.76019 15.3818 7.52438 15.8221L6.75796 17.1431C6.37476 17.8477 6.10948 18.4055 5.96209 18.8165C5.72628 19.4623 5.66731 20.0788 5.72626 20.6072C5.90312 20.8714 6.31581 20.6072 7.02326 19.8439ZM2.04162 19.5504C2.51325 19.2568 3.10281 18.7871 3.83974 18.1706C4.48823 17.5835 5.07776 17.0551 5.57888 16.556C6.07999 15.9689 6.31581 15.646 6.28633 15.5285C6.02104 14.6185 5.13673 14.7653 3.63339 16.057C3.04385 16.5267 2.54274 17.0844 2.07111 17.7303C1.54052 18.5229 1.27522 19.2274 1.27522 19.8146C1.21627 20.0201 1.48156 19.932 2.04162 19.5504Z" fill="#C61D23"/>
<path d="M10.8258 14.4717C10.8553 15.0002 10.7374 15.5579 10.4721 16.0863C10.59 15.9689 10.8258 15.7047 11.1795 15.2937L11.6512 14.7066L12.1818 14.002C13.1545 12.9159 14.0683 12.3581 14.9526 12.27C15.3063 12.3581 15.3948 12.7397 15.2474 13.4149L15.1884 13.8259L15.1295 14.1782C15.1295 14.4717 15.2179 14.7066 15.3653 14.824C15.3653 14.8534 15.4832 14.8534 15.719 14.824L15.9548 14.7653C16.0433 14.7653 16.1022 14.7947 16.1317 14.824V15.235C16.1022 15.3524 15.8959 15.4405 15.5422 15.5286C15.1589 15.6166 14.8052 15.5286 14.5105 15.2937C14.2157 15.0001 14.0978 14.5892 14.1567 14.0901C14.0388 13.7085 13.4198 14.2369 12.2997 15.7047C11.1501 17.1725 10.2068 18.611 9.52881 20.0201C9.44038 20.2256 9.32247 20.5191 9.17508 20.9301L8.99823 21.3998L8.82135 21.7521C8.29076 21.9869 7.93704 21.8989 7.78965 21.4585C7.76018 21.3117 7.73071 21.1062 7.73071 20.8127C7.76019 20.6072 7.81913 20.4311 7.84861 20.2256C7.96652 19.7559 8.20235 19.0513 8.61503 18.0826L9.0277 16.9377C9.17508 16.5267 9.32247 16.1744 9.44038 15.9102C9.58777 15.4992 9.73515 14.8534 9.91201 14.002C10.4131 13.6791 10.7374 13.8259 10.8258 14.4717Z" fill="#C61D23"/>
<path d="M7.17065 9.8628L11.0321 8.89404C14.4515 8.04271 17.0455 7.33816 18.7846 6.75103C19.0205 6.16391 19.3447 5.34193 19.7574 4.22639L20.229 2.84665L20.7596 1.4669L20.8775 1.05592L20.9954 0.586216C21.0839 0.292653 21.1723 0.116519 21.2902 0.0578068C21.9976 -0.235756 22.0566 0.586221 21.526 2.58245C21.3786 3.19893 21.1428 3.93283 20.8186 4.84287L20.6417 5.37129L20.4648 5.78228C20.3764 6.07584 20.3174 6.28133 20.288 6.3694C21.3786 6.07584 22.9409 5.60614 25.0338 4.98965C25.7707 4.7548 26.6256 4.4906 27.5688 4.19704L28.7774 3.84476C29.249 3.69798 29.5733 3.58055 29.8091 3.49248C29.8386 3.46313 29.927 3.46313 30.0449 3.5512C30.1923 3.63927 30.2807 3.7567 30.2807 3.90348C30.2807 4.05026 30.1628 4.22639 29.927 4.43189C29.6617 4.63738 29.2195 4.81352 28.6005 5.01901C27.4804 5.31258 26.0655 5.75292 24.3263 6.28133L22.1156 6.92717L19.8163 7.63172C19.7869 7.71979 19.7279 7.89593 19.6395 8.16014L19.4626 8.62983L19.2857 9.21695C19.1384 9.68665 18.991 10.127 18.8141 10.538C18.6078 11.1251 18.4604 11.6829 18.2835 12.27C17.2518 15.4111 16.3675 18.2293 15.6895 20.7246C13.4198 28.5627 12.8892 32.3497 14.0683 32.0855C14.4515 31.9974 14.6873 32.0268 14.7757 32.1442C15.0116 32.4084 14.8642 32.6139 14.3041 32.79C12.0639 33.4065 12.0049 29.7663 14.0683 21.8401C14.7168 19.3449 15.6011 16.4386 16.7212 13.1507C16.9276 12.5636 17.1044 11.9764 17.3108 11.36C17.4582 10.949 17.635 10.4499 17.8414 9.92151C18.1951 8.89404 18.372 8.27756 18.4309 8.13078C17.3403 8.39498 16.0727 8.71791 14.5694 9.04082L12.7713 9.51052L11.0027 9.8628C8.2613 10.5086 5.84418 11.0958 3.78078 11.5948C3.57444 11.5948 3.45652 11.5067 3.36809 11.36C3.33862 11.2132 3.33862 11.0664 3.42705 10.8903C4.48823 10.5673 5.75575 10.2151 7.17065 9.8628Z" fill="#C61D23"/>
<path d="M25.3711 13.8598V21.1402H23.0424V13.8305H20.5368V11.5113H27.8766V13.8305H25.3711V13.8598Z" fill="black"/>
<path d="M37.5746 16.5312C37.5746 19.2613 35.3343 21.4924 32.593 21.4924C29.8516 21.4924 27.6113 19.2613 27.6113 16.5312C27.6113 13.8011 29.8516 11.57 32.593 11.57C35.3638 11.57 37.5746 13.8011 37.5746 16.5312ZM35.5112 16.5312C35.5112 15.768 35.2164 15.034 34.6564 14.4763C34.0963 13.9185 33.3889 13.6249 32.593 13.6249C31.8266 13.6249 31.0896 13.9185 30.5296 14.4763C29.9695 15.034 29.6747 15.7386 29.6747 16.5312C29.6747 17.2945 29.9695 18.0284 30.5296 18.5862C31.0896 19.1146 31.7971 19.4375 32.593 19.4375C33.3594 19.4375 34.0963 19.1146 34.6564 18.5862C35.2164 18.0284 35.5112 17.2945 35.5112 16.5312Z" fill="black"/>
<path d="M44.2069 17.8816L46.2998 21.1695H43.7058L41.6719 18.1165C41.2592 18.1165 40.9055 18.1165 40.5812 18.1165V21.1402H38.2526V11.5406H40.5812C40.876 11.5406 41.495 11.5406 42.8805 11.5406C45.2681 11.5406 46.3293 13.3314 46.3293 14.8286C46.2998 15.9147 45.7397 17.3238 44.2069 17.8816ZM40.5518 16.0322H42.851C43.1458 16.0322 43.411 15.9735 43.6174 15.8854C43.7648 15.7973 43.8827 15.7386 43.9711 15.6212C44.1775 15.357 44.2659 15.034 44.2659 14.7992C44.2659 14.5643 44.1775 14.2121 43.9416 13.9772C43.7058 13.713 43.3816 13.5956 42.8805 13.5956H40.5812V16.0322H40.5518Z" fill="black"/>
<path d="M57 15.5625V21.1402H55.084V20.3769C54.2587 20.964 53.2859 21.2869 52.1953 21.2869C49.4539 21.2869 47.2136 19.0559 47.2136 16.3257C47.2136 13.5956 49.4539 11.3645 52.1953 11.3645C53.4333 11.3645 54.5534 11.8049 55.4377 12.5388L53.9639 14.0066C53.4628 13.625 52.8438 13.4195 52.2247 13.4195C51.4583 13.4195 50.7214 13.713 50.1908 14.2708C49.6308 14.8286 49.336 15.5331 49.336 16.3257C49.336 17.089 49.6602 17.8229 50.1908 18.3807C50.7214 18.9091 51.4583 19.232 52.2247 19.232C52.9911 19.232 53.7281 18.9091 54.2881 18.3807C54.406 18.2633 54.8187 17.8229 54.9661 17.5H52.7258V15.5625H55.143H57Z" fill="black"/>
<path d="M22.3392 24.5443H22.0739V23.5756H20.8358V24.5443H20.5705V22.4307H20.8358V23.3407H22.0739V22.4307H22.3392V24.5443Z" fill="black"/>
<path d="M24.7857 24.5737C24.5499 24.5737 24.3731 24.4856 24.2257 24.3388C24.0783 24.192 24.0193 23.9865 24.0193 23.7517C24.0193 23.5168 24.0783 23.3407 24.2257 23.1939C24.3731 23.0471 24.5499 22.9591 24.7563 22.9591C24.9921 22.9591 25.169 23.0471 25.2869 23.1939C25.4048 23.3407 25.4932 23.5462 25.4932 23.781V23.8398H24.2552C24.2552 23.9865 24.3141 24.104 24.432 24.2214C24.5205 24.3095 24.6678 24.3682 24.8152 24.3682C24.9921 24.3682 25.169 24.3095 25.2869 24.1627L25.4048 24.3095C25.2279 24.515 25.0216 24.5737 24.7857 24.5737ZM25.2574 23.693C25.2574 23.5756 25.1984 23.4581 25.11 23.3407C25.0216 23.2233 24.9037 23.1939 24.7268 23.1939C24.5794 23.1939 24.4615 23.2526 24.3731 23.3407C24.2846 23.4581 24.2257 23.5756 24.2257 23.693H25.2574Z" fill="black"/>
<path d="M27.3798 24.5443H27.1439V23.0178H27.3798V23.2526C27.5271 23.0765 27.704 22.9884 27.8808 22.9884V23.2233C27.8514 23.2233 27.8219 23.2233 27.7924 23.2233C27.7335 23.2233 27.645 23.2526 27.5566 23.3113C27.4682 23.3701 27.4092 23.4288 27.3798 23.4875V24.5443Z" fill="black"/>
<path d="M30.1506 24.5737C29.9148 24.5737 29.7379 24.4856 29.5905 24.3388C29.4431 24.192 29.3842 23.9865 29.3842 23.7517C29.3842 23.5168 29.4431 23.3407 29.5905 23.1939C29.7379 23.0471 29.9148 22.9591 30.1211 22.9591C30.3569 22.9591 30.5338 23.0471 30.6517 23.1939C30.7696 23.3407 30.858 23.5462 30.858 23.781V23.8398H29.62C29.62 23.9865 29.6789 24.104 29.7969 24.2214C29.8853 24.3095 30.0327 24.3682 30.1801 24.3682C30.3569 24.3682 30.5338 24.3095 30.6517 24.1627L30.7696 24.3095C30.5928 24.515 30.3864 24.5737 30.1506 24.5737ZM30.6222 23.693C30.6222 23.5756 30.5633 23.4581 30.4748 23.3407C30.3864 23.2233 30.2685 23.1939 30.0916 23.1939C29.9442 23.1939 29.8263 23.2526 29.7379 23.3407C29.6495 23.4581 29.5905 23.5756 29.5905 23.693H30.6222Z" fill="black"/>
<path d="M35.7807 24.5443H35.5449V24.3682C35.427 24.515 35.2501 24.5737 35.0438 24.5737C34.8964 24.5737 34.7785 24.515 34.6606 24.4269C34.5427 24.3388 34.5132 24.2214 34.5132 24.0453C34.5132 23.8985 34.5721 23.7517 34.6606 23.6636C34.7785 23.5756 34.8964 23.5462 35.0438 23.5462C35.2501 23.5462 35.427 23.6049 35.5449 23.7517V23.4875C35.5449 23.3994 35.5154 23.3114 35.427 23.2526C35.368 23.1939 35.2501 23.1646 35.1617 23.1646C34.9848 23.1646 34.8374 23.2233 34.6901 23.3701L34.5721 23.1939C34.749 23.0178 34.9259 22.9297 35.1912 22.9297C35.368 22.9297 35.5154 22.9591 35.6333 23.0471C35.7512 23.1352 35.8102 23.2526 35.8102 23.4288V24.5443H35.7807ZM35.1322 24.3975C35.3091 24.3975 35.4565 24.3388 35.5449 24.2214V23.9278C35.4565 23.8104 35.3091 23.7517 35.1322 23.7517C35.0143 23.7517 34.9259 23.7811 34.8669 23.8398C34.808 23.8985 34.749 23.9865 34.749 24.0746C34.749 24.1627 34.7785 24.2508 34.8669 24.3095C34.9259 24.3682 35.0143 24.3975 35.1322 24.3975Z" fill="black"/>
<path d="M37.7852 24.5443H37.5493V23.0178H37.7852V23.2526C37.9325 23.0765 38.1094 22.9884 38.2863 22.9884V23.2233C38.2568 23.2233 38.2273 23.2233 38.1978 23.2233C38.1389 23.2233 38.0504 23.2526 37.962 23.3113C37.8736 23.3701 37.8146 23.4288 37.7852 23.4875V24.5443Z" fill="black"/>
<path d="M40.2317 24.5737C40.1138 24.5737 40.0254 24.5443 39.9664 24.4856C39.9075 24.4269 39.878 24.3388 39.878 24.2214V23.2233H39.6127V23.0178H39.878V22.6068H40.1138V23.0178H40.4381V23.2233H40.1138V24.1627C40.1138 24.2214 40.1138 24.2801 40.1433 24.3095C40.1728 24.3388 40.2023 24.3682 40.2612 24.3682C40.3202 24.3682 40.3791 24.3388 40.4086 24.3095L40.4676 24.4856C40.4676 24.5443 40.3497 24.5737 40.2317 24.5737Z" fill="black"/>
<path d="M44.388 24.5443H44.1522V22.4307H44.388V24.5443Z" fill="black"/>
<path d="M46.2451 22.8123C46.2156 22.8123 46.1567 22.7829 46.1272 22.7536C46.0977 22.7242 46.0682 22.6949 46.0682 22.6362C46.0682 22.5774 46.0977 22.5481 46.1272 22.5187C46.1567 22.4894 46.1862 22.46 46.2451 22.46C46.3041 22.46 46.3335 22.4894 46.363 22.5187C46.3925 22.5481 46.422 22.5774 46.422 22.6362C46.422 22.6949 46.3925 22.7242 46.363 22.7536C46.3335 22.7829 46.2746 22.8123 46.2451 22.8123ZM46.363 24.5443H46.1272V23.0178H46.363V24.5443Z" fill="black"/>
<path d="M48.7801 24.5443H48.5148L47.8663 23.0178H48.1316L48.6327 24.2801L49.1338 23.0178H49.3991L48.7801 24.5443Z" fill="black"/>
<path d="M51.6099 24.5737C51.3741 24.5737 51.1972 24.4856 51.0498 24.3388C50.9025 24.192 50.8435 23.9865 50.8435 23.7517C50.8435 23.5168 50.9025 23.3407 51.0498 23.1939C51.1972 23.0471 51.3741 22.9591 51.5804 22.9591C51.8163 22.9591 51.9931 23.0471 52.111 23.1939C52.2289 23.3407 52.3174 23.5462 52.3174 23.781V23.8398H51.0793C51.0793 23.9865 51.1383 24.104 51.2562 24.2214C51.3446 24.3095 51.492 24.3682 51.6394 24.3682C51.8163 24.3682 51.9931 24.3095 52.111 24.1627L52.2289 24.3095C52.0815 24.515 51.8752 24.5737 51.6099 24.5737ZM52.111 23.693C52.111 23.5756 52.0521 23.4581 51.9636 23.3407C51.8752 23.2233 51.7573 23.1939 51.5804 23.1939C51.433 23.1939 51.3151 23.2526 51.2267 23.3407C51.1383 23.4581 51.0793 23.5756 51.0793 23.693H52.111Z" fill="black"/>
<path d="M54.4692 24.5737C54.2039 24.5737 53.9976 24.4856 53.8502 24.3388L53.9681 24.1627C54.0271 24.2214 54.086 24.2801 54.1745 24.3095C54.2629 24.3388 54.3513 24.3682 54.4692 24.3682C54.5871 24.3682 54.6756 24.3388 54.7345 24.3095C54.7935 24.2508 54.823 24.192 54.823 24.1333C54.823 24.0746 54.7935 24.0159 54.7345 23.9865C54.6756 23.9572 54.5872 23.9278 54.4987 23.8985C54.4103 23.8691 54.3219 23.8691 54.2334 23.8398C54.145 23.8104 54.0566 23.7811 53.9976 23.693C53.9387 23.6343 53.9092 23.5462 53.9092 23.4288C53.9092 23.3114 53.9681 23.1939 54.0566 23.1059C54.145 23.0178 54.2924 22.9884 54.4692 22.9884C54.705 22.9884 54.8819 23.0765 55.0293 23.2233L54.9114 23.3994C54.7935 23.282 54.6461 23.1939 54.4398 23.1939C54.3219 23.1939 54.2629 23.2233 54.2039 23.2526C54.145 23.3114 54.1155 23.3407 54.1155 23.4288C54.1155 23.4875 54.145 23.5462 54.2039 23.5756C54.2629 23.6049 54.3513 23.6343 54.4398 23.6636C54.5282 23.693 54.6166 23.693 54.705 23.7223C54.7935 23.7517 54.8819 23.8104 54.9409 23.8691C54.9998 23.9278 55.0293 24.0159 55.0293 24.1333C55.0293 24.2801 54.9704 24.3682 54.8819 24.4562C54.823 24.5443 54.6756 24.5737 54.4692 24.5737Z" fill="black"/>
<path d="M56.9748 24.515C56.9453 24.5443 56.8863 24.5737 56.8569 24.5737C56.7979 24.5737 56.7684 24.5443 56.739 24.515C56.7095 24.4856 56.68 24.4269 56.68 24.3975C56.68 24.3388 56.7095 24.3095 56.739 24.2801C56.7684 24.2508 56.8274 24.2214 56.8569 24.2214C56.8863 24.2214 56.9453 24.2508 56.9748 24.2801C57.0042 24.3095 57.0337 24.3682 57.0337 24.3975C57.0337 24.4562 57.0042 24.4856 56.9748 24.515ZM56.9453 23.9572H56.739L56.68 22.4307H56.9748L56.9453 23.9572Z" fill="black"/>
</g>
<defs>
<clipPath id="clip0_21_892">
<rect width="57" height="35" fill="white"/>
</clipPath>
</defs>
</svg>
