<svg width="18" height="18" viewBox="0 0 18 18" fill="none" xmlns="http://www.w3.org/2000/svg">
<rect width="18" height="18" rx="2" fill="white"/>
<rect width="18" height="18" rx="2" fill="#C61D23"/>
<path fill-rule="evenodd" clip-rule="evenodd" d="M5.06811 12.1756C4.89159 12.1233 4.73053 12.0304 4.59852 11.9047C4.46651 11.7789 4.36742 11.624 4.30961 11.4531C3.9793 10.5693 3.88143 6.87912 4.51759 6.15063C4.72931 5.91365 5.02824 5.76775 5.34948 5.74459C7.0561 5.56546 12.3289 5.58934 12.9344 5.8043C13.1047 5.85825 13.2604 5.94912 13.3896 6.0701C13.5188 6.19109 13.6184 6.33907 13.6807 6.50293C14.0416 7.41653 14.0538 10.7365 13.6317 11.6143C13.5198 11.8428 13.3323 12.0278 13.0996 12.1397C12.4634 12.4502 5.91224 12.4443 5.06811 12.1756ZM7.77789 10.4439L10.8363 8.89141L7.77789 7.32696V10.4439Z" fill="white"/>
</svg>
